<svg width="125" height="55" viewBox="0 0 125 55" fill="none" xmlns="http://www.w3.org/2000/svg">
<path d="M68.2075 8.44246C69.4024 13.1051 66.5415 17.841 61.8175 19.0204C60.0001 19.4742 58.1718 19.3354 56.5418 18.7275C53.9349 17.7551 51.8354 15.5824 51.1002 12.7135C49.9052 8.05085 52.7661 3.31492 57.4902 2.13551C62.2142 0.956097 67.0125 3.77982 68.2075 8.44246Z" fill="white"/>
<mask id="path-2-inside-1" fill="white">
<path d="M75.2847 15.4263C74.67 17.3519 67.1913 16.742 58.5806 14.0642C55.2681 13.034 52.2706 11.8478 49.8709 10.6685C46.0329 8.78234 43.7243 6.91369 44.1026 5.72887C44.7173 3.80328 52.196 4.41312 60.8067 7.09099C69.4174 9.76886 75.8995 13.5007 75.2847 15.4263Z"/>
</mask>
<path d="M49.8709 10.6685L55.6946 -0.970685L49.8709 10.6685ZM62.8712 11.5658C64.0716 7.80551 66.6636 5.74417 68.2412 4.82975C69.7335 3.9648 70.9568 3.71725 71.3066 3.65209C72.0327 3.51684 72.0882 3.62547 71.0738 3.54275C69.2601 3.39486 66.2066 2.82205 62.5341 1.67993L54.6271 26.4484C59.5653 27.9842 64.5565 29.0552 68.7886 29.4003C70.797 29.5641 73.3756 29.6315 75.9459 29.1527C77.2178 28.9158 79.1936 28.4209 81.2461 27.2312C83.384 25.992 86.3442 23.5285 87.6983 19.2868L62.8712 11.5658ZM56.5161 9.5894C55.3157 13.3497 52.7237 15.411 51.1461 16.3254C49.6539 17.1904 48.4305 17.4379 48.0807 17.5031C47.3546 17.6383 47.2991 17.5297 48.3136 17.6124C50.1272 17.7603 53.1807 18.3331 56.8532 19.4752L64.7602 -5.29326C59.822 -6.82901 54.8308 -7.90005 50.5987 -8.24515C48.5903 -8.40892 46.0117 -8.47633 43.4414 -7.99754C42.1695 -7.7606 40.1937 -7.26571 38.1412 -6.07599C36.0033 -4.83681 33.0431 -2.37331 31.689 1.86835L56.5161 9.5894ZM56.8532 19.4752C60.5257 20.6174 63.3603 21.8757 64.9323 22.7807C65.8115 23.2869 65.7029 23.3445 65.1866 22.8229C64.9378 22.5716 64.0792 21.6765 63.3589 20.1235C62.5973 18.4816 61.6708 15.326 62.8712 11.5658L87.6983 19.2868C89.0524 15.0452 88.0577 11.3517 87.0257 9.12674C86.0349 6.99057 84.7035 5.46717 83.7989 4.55334C81.971 2.70675 79.819 1.30297 78.0783 0.300778C74.4102 -1.81102 69.6985 -3.75751 64.7602 -5.29326L56.8532 19.4752ZM62.5341 1.67993C59.7592 0.816955 57.4007 -0.132208 55.6946 -0.970685L44.0472 22.3078C47.1404 23.8279 50.7769 25.251 54.6271 26.4484L62.5341 1.67993ZM55.6946 -0.970685C54.2042 -1.70315 53.7217 -2.10205 53.8589 -1.98642C53.8851 -1.9643 54.6916 -1.31181 55.4936 0.0223693C56.2619 1.30027 58.003 4.93181 56.5161 9.5894L31.689 1.86835C30.013 7.11835 31.9009 11.4278 33.1155 13.4482C34.364 15.5249 35.9166 16.9846 36.9524 17.8578C39.1088 19.6755 41.6996 21.154 44.0472 22.3078L55.6946 -0.970685Z" fill="#0085FF" mask="url(#path-2-inside-1)"/>
<path d="M63.5724 51.1989L70.7032 53.6515C74.1667 37.3415 67.041 30.0766 59.5885 23.9133V34.7049C65.3565 38.6925 66.2149 46.7842 63.5724 51.1989Z" fill="#0085FF"/>
<path d="M55.6184 51.1989L48.4876 53.6515C45.0241 37.3415 52.1497 30.0766 59.6022 23.9133V34.7049C53.8342 38.6925 52.9759 46.7842 55.6184 51.1989Z" fill="#0085FF"/>
<path d="M124.123 7.35791V16.1874H122.948V12.1844H117.47V16.1874H116.295V7.35791H117.47V11.2343H122.948V7.35791H124.123Z" fill="white"/>
<path d="M104.368 14.2126H100.392L99.6594 16.1874H98.4038L101.7 7.35791H103.073L106.356 16.1874H105.1L104.368 14.2126ZM104.028 13.2697L102.38 8.7849L100.732 13.2697H104.028Z" fill="white"/>
<path d="M83.7935 15.25H88.7125V16.1874H82.6244V7.35791H83.7935V15.25Z" fill="white"/>
<path d="M37.3424 16.1874L33.6115 12.159V16.1874H32.4285V7.35791H33.6115V11.4496L37.3554 7.35791H38.8504L34.7425 11.779L38.8894 16.1874H37.3424Z" fill="white"/>
<path d="M18.4463 8.30664V11.254H21.7284V12.2028H18.4463V15.2387H22.116V16.1874H17.2704V7.35791H22.116V8.30664H18.4463Z" fill="white"/>
<path d="M3.10198 16.3101C2.5099 16.3101 1.97789 16.2082 1.50594 16.0046C1.04257 15.7925 0.677887 15.504 0.411881 15.1391C0.145874 14.7658 0.00858084 14.3373 0 13.8536H1.24851C1.29142 14.2694 1.46303 14.6215 1.76336 14.91C2.07228 15.19 2.51848 15.33 3.10198 15.33C3.65973 15.33 4.09736 15.1943 4.41485 14.9228C4.74092 14.6428 4.90396 14.2864 4.90396 13.8536C4.90396 13.5142 4.80957 13.2385 4.62079 13.0263C4.43201 12.8142 4.19604 12.653 3.91287 12.5427C3.6297 12.4324 3.24785 12.3136 2.76732 12.1863C2.17525 12.0336 1.69901 11.8809 1.33861 11.7281C0.986798 11.5754 0.682178 11.3378 0.424752 11.0154C0.175907 10.6845 0.0514851 10.2432 0.0514851 9.69172C0.0514851 9.20807 0.175907 8.77957 0.424752 8.40623C0.673597 8.03289 1.02112 7.74439 1.46733 7.54075C1.92211 7.33711 2.44125 7.23529 3.02475 7.23529C3.86567 7.23529 4.55214 7.44317 5.08415 7.85894C5.62475 8.27471 5.92937 8.82624 5.99801 9.51353H4.71089C4.66798 9.17413 4.48778 8.87715 4.17029 8.6226C3.8528 8.35956 3.43234 8.22804 2.90891 8.22804C2.4198 8.22804 2.02079 8.35532 1.71188 8.60987C1.40297 8.85594 1.24851 9.20383 1.24851 9.65353C1.24851 9.97597 1.33861 10.239 1.51881 10.4426C1.70759 10.6463 1.93498 10.8033 2.20099 10.9136C2.47558 11.0154 2.85742 11.1342 3.34653 11.2699C3.93861 11.4312 4.41485 11.5924 4.77524 11.7536C5.13564 11.9063 5.44455 12.1481 5.70197 12.4791C5.9594 12.8015 6.08811 13.2427 6.08811 13.8027C6.08811 14.2355 5.97227 14.6428 5.74059 15.0246C5.50891 15.4064 5.16567 15.7161 4.71089 15.9537C4.2561 16.1913 3.7198 16.3101 3.10198 16.3101Z" fill="white"/>
<path d="M68.3481 12.0223C68.4339 11.3995 68.594 10.5925 68.3935 9.60103L61.4112 4.44293L53.1913 4.63286C52.1011 5.78955 51.6798 6.85782 51.6064 7.1099L60.685 10.7039L68.3481 12.0223Z" fill="white"/>
<path d="M12.7746 54.8234L7.76495 45.6407H7.01351V54.8234H0V29.9242H11.057C13.0847 29.9242 14.8023 30.2774 16.2098 30.9837C17.6173 31.6666 18.6788 32.6201 19.3945 33.8445C20.1102 35.0453 20.468 36.3992 20.468 37.9061C20.468 39.6013 19.9909 41.0965 19.0367 42.3915C18.1063 43.6629 16.7346 44.5694 14.9216 45.111L20.6111 54.8234H12.7746ZM7.01351 40.9081H10.4845C11.4387 40.9081 12.1544 40.6844 12.6315 40.2371C13.1086 39.7897 13.3471 39.1422 13.3471 38.2946C13.3471 37.494 13.0967 36.8701 12.5957 36.4227C12.1186 35.9518 11.4148 35.7164 10.4845 35.7164H7.01351V40.9081Z" fill="white"/>
<path d="M33.3539 35.4691V39.5307H42.6476V44.7931H33.3539V49.2785H43.7211V54.8234H26.3404V29.9242H43.7211V35.4691H33.3539Z" fill="white"/>
<path d="M75.5423 42.3208C75.5423 39.8721 76.0552 37.6942 77.081 35.787C78.1306 33.8563 79.6097 32.3611 81.5181 31.3016C83.4265 30.2185 85.6212 29.677 88.1022 29.677C91.2511 29.677 93.8991 30.5128 96.0461 32.1846C98.1931 33.8327 99.5767 36.0813 100.197 38.9303H92.6467C92.1934 37.9885 91.5612 37.2703 90.7502 36.7759C89.9629 36.2814 89.0445 36.0342 87.9948 36.0342C86.3727 36.0342 85.0726 36.6111 84.0945 37.7648C83.1403 38.895 82.6632 40.4137 82.6632 42.3208C82.6632 44.2515 83.1403 45.7938 84.0945 46.9475C85.0726 48.0777 86.3727 48.6428 87.9948 48.6428C89.0445 48.6428 89.9629 48.3955 90.7502 47.9011C91.5612 47.4066 92.1934 46.6885 92.6467 45.7467H100.197C99.5767 48.5957 98.1931 50.856 96.0461 52.5277C93.8991 54.1759 91.2511 55 88.1022 55C85.6212 55 83.4265 54.4702 81.5181 53.4107C79.6097 52.3276 78.1306 50.8325 77.081 48.9253C76.0552 46.9946 75.5423 44.7931 75.5423 42.3208Z" fill="white"/>
<path d="M124.143 29.9242V35.4338H117.416V54.8234H110.402V35.4338H103.746V29.9242H124.143Z" fill="white"/>
</svg>
